<?xml version="1.0" encoding="iso-8859-1"?>
<!-- Uploaded to: SVG Repo, www.svgrepo.com, Generator: SVG Repo Mixer Tools -->
<svg fill="#000000" height="800px" width="800px" version="1.1" id="Layer_1" xmlns="http://www.w3.org/2000/svg" xmlns:xlink="http://www.w3.org/1999/xlink" 
	 viewBox="0 0 511.999 511.999" xml:space="preserve">
<g>
	<g>
		<path d="M402.079,326.653c-4.083-49.48-25.448-87.137-44.313-120.356c-10.813-19.063-21.032-37.063-26.761-55.136
			c-10.448-33.021-29.709-46.105-44.032-51.261c-4.177-1.51-8.177-2.438-11.844-2.958h-0.002
			c-1.541-15.9,0.483-46.712,31.894-72.959L286.983,0c-10.136,8.469-17.947,17.358-23.967,26.211c-0.001,0-0.001-0.001-0.001-0.001
			c-28.95-19.5-61.971-20.271-95.93-2.115c-25.553,13.646-42.626,33.574-43.345,34.417L108.949,75.95l21.615,7.448
			c22.625,7.792,43.24,11.698,61.699,11.698c19.417,0,36.469-4.313,51.001-12.938c0.177-0.104,0.354-0.208,0.531-0.323
			c0.001-0.001,0.002-0.001,0.003-0.002c-0.361,5.556-0.287,10.652,0.021,15.148c-0.001,0-0.002,0-0.003,0.001
			c-3.573,0.542-7.469,1.448-11.531,2.917c-14.323,5.156-33.584,18.24-44.032,51.261c-5.729,18.073-15.948,36.074-26.761,55.136
			c-18.865,33.219-40.23,70.876-44.313,120.356c-2.896,35.219-1.729,100.866,38.678,144.742
			c24.823,26.938,59.73,40.605,103.773,40.605c44.043,0,78.949-13.667,103.773-40.605c32.573-35.376,39.647-84.887,39.647-121.211
			C403.048,341.455,402.642,333.476,402.079,326.653z M307.484,402.967c-12.281,16.386-29.73,25.782-47.855,25.782
			s-35.574-9.396-47.855-25.782c-11.459-15.282-17.771-35.344-17.771-56.511c0-21.167,6.313-41.24,17.771-56.522
			c12.281-16.375,29.73-25.771,47.855-25.771s35.574,9.396,47.855,25.771c11.459,15.281,17.771,35.355,17.771,56.522
			S318.942,387.685,307.484,402.967z"/>
	</g>
</g>
<g>
	<g>
		<ellipse cx="259.628" cy="347.24" rx="36.01" ry="51.39"/>
	</g>
</g>
</svg>