<?xml version="1.0" ?>
<svg fill="#000000" width="800px" height="800px" viewBox="0 0 24 24" xmlns="http://www.w3.org/2000/svg">
<path fill="#373636" d="M884.519,781.104c-15.641-13.652-32.137-30.154-39.537-41.53c-7.397-11.379-65.137-65.419-116.336-82.775
	c2.845-18.486,9.386-55.461,9.669-67.126c4.835,0.572,6.259-0.569,6.259-0.569s-6.541-42.951,1.138-61.154
	c7.682-18.206,13.655-58.592,14.79-80.212c1.141-21.617,9.958-33.276-1.704-49.492c-11.662-16.214-15.648-44.379-6.827-57.744
	c8.817-13.369,34.702-48.924,45.792-77.078c11.093-28.162,16.214-56.037,32.996-78.509c16.78-22.469,43.803-68.836,48.637-76.516
	c4.835-7.679,9.103-13.085,5.976-22.471c-3.131-9.383-3.413-19.91-15.927-26.448c-12.514-6.542-21.048-11.665-21.617-8.538
	c-0.569,3.131-1.424,4.838,5.69,9.675c7.11,4.831,3.979,10.81-3.414,13.08c-7.396,2.279-17.917,9.675-15.075,10.247
	c2.469,0.488,12.651-0.517,14.732-0.794c0.161-0.039,0.282-0.065,0.344-0.065c0.109,0-0.029,0.026-0.344,0.065
	c-2.176,0.562-12.986,4.76-12.459,8.47c0.569,3.983,13.086-1.138,13.086-1.138s-9.673,8.537-8.817,10.807
	c0.855,2.272,3.7,3.413,3.7,3.413s-2.279,10.524-11.662,18.486c-9.389,7.966-36.127,41.248-41.53,57.175
	c-5.403,15.927-11.379,21.903-16.782,32.713c-5.403,10.807-18.206,39.245-22.471,44.934c-4.263,5.69-17.917,19.061-27.017,26.741
	c-9.104,7.679-28.444,30.148-28.444,37.544c-4.266,4.269-7.458,6.474-7.458,6.474s-25.625,3.658-33.68-14.645
	c-8.052-18.309-10.247-28.559-16.108-35.146c-5.86-6.593-10.25-8.785-10.25-8.785l-4.394-10.984c0,0-0.07-20.543-20.552-30.781
	c-20.479-10.241-60.582-11.38-75.658,17.917c-9.672,16.783-11.379,36.699-3.7,42.1c3.413,5.689,5.972,16.207,9.389,18.768
	c3.413,2.559,4.262,5.982,4.262,9.676c0,3.696,3.986,16.213,13.655,18.486c9.672,2.272,18.204,7.116,21.334,11.948
	c3.128,4.831,5.117,13.655,13.651,13.366c5.12,7.11,5.403,16.786-3.128,16.786c-8.534,0-33.279,6.259-46.934-2.565
	c-13.651-8.81-60.016-34.696-71.392-39.244c-11.379-4.558-13.938-14.507-33.279-16.499c-19.344-1.997-100.977-5.686-104.957-17.065
	c-3.985-11.376,6.825-21.334,11.09-26.455c4.266-5.117,6.827-19.344,6.542-23.893c-0.283-4.552-2.559-6.827-2.559-6.827
	s-0.569-4.552-1.99-4.552c-1.421,0-5.407,2.279-5.407,2.279s-0.282,13.086-1.989,13.938c-1.707,0.852-15.075,10.807-15.075,10.807
	s-0.286-12.797-0.286-15.075c0-2.279-5.972-3.417-6.827,3.979c-0.849,7.4-9.383,23.896-7.962,35.272
	c1.424,11.379,9.669,15.364,11.948,19.344c2.272,3.983,16.21,24.741,45.509,29.579c29.296,4.838,65.42,7.676,83.057,21.614
	c17.632,13.938,52.903,45.805,85.047,61.164c32.137,15.358,37.827,20.196,37.827,20.196s12.803,3.979,6.544,13.648
	c-6.259,9.676-4.555,27.882,6.259,31.292c0,0-8.534-15.927-3.131-23.327c5.403-7.396,11.948-7.107,11.948-7.107
	s-12.803,15.645-7.114,22.186c0.569-4.552,5.403-18.775,12.517-19.058c7.11-0.286,17.631,17.637,27.589,22.186
	c9.958,4.552,16.782,32.424,5.403,44.089c-11.376,11.659-27.02,37.544-27.02,37.544s-41.81,19.913-57.457,67.126
	c-15.645,47.213-3.697,92.729,1.706,126.863c5.403,34.13,6.828,66.554,0.569,78.502c-6.259,11.948-10.804,46.943-17.348,61.732
	c-6.541,14.786-1.989,75.944,1.421,94.712c3.414,18.776,6.827,48.075,2.279,61.726c-4.555,13.655-8.248,34.131-16.217,44.368
	c-7.962,10.241-10.237,28.165-5.972,35.561c4.269,7.39,23.61,20.19,38.117,11.659c14.507-8.528,10.237-17.065,14.789-28.155
	c4.552-11.096,8.534-23.893,8.534-38.403c0-14.506-5.689-34.699-3.7-54.326c1.996-19.627,16.5-67.133,17.924-88.749
	c1.424-21.614-3.411-32.135,1.424-41.241c4.835-9.1,12.511-16.21,15.072-32.424c2.559-16.217,5.973-34.992,11.945-44.378
	c5.975-9.38,22.758-89.312,20.196-126.004c8.534-1.707,20.479,5.12,27.306,15.358s44.944,56.037,80.781,66.843
	c35.838,10.81,82.488,41.244,82.488,50.061c0,8.817,2.558,15.934-4.269,23.324c-6.824,7.399-11.661,54.323-3.979,79.636
	c7.677,25.32,9.669,64.574,5.97,69.691c-3.696,5.121-11.093,7.68-19.058,7.68c-7.962,0-27.303,11.954-29.293,16.216
	c-1.99,4.269-0.569,25.883,10.807,33.568c11.379,7.679,25.034,22.475,27.878,34.985c2.845,12.517,23.607,44.089,47.785,46.361
	c16.497,0.569,17.348-10.241,19.055-13.651c1.71-3.417-16.496-21.903-17.065-31.003c-0.569-9.106-1.424-25.313-0.569-30.44
	c0.855-5.118,5.118-6.538,6.259-9.101c1.138-2.558,0.569-9.669,0.283-11.375c-0.283-1.71-5.686-9.106-5.686-9.106
	s-0.855-13.369,1.707-24.176c2.559-10.807,4.545-54.33,10.235-75.095c5.689-20.762,9.389-69.402,9.389-70.254
	s8.813-18.2,11.089-36.403C896.75,808.406,900.164,794.758,884.519,781.104z"/>
</svg>
