<?xml version="1.0" ?>
<svg fill="#000000" width="800px" height="800px" viewBox="0 0 24 24" xmlns="http://www.w3.org/2000/svg">
<g>
	<path d="M18,17a3.57,3.57,0,0,0-2.71,1.29c-.49.49-.73.71-1.29.71s-.8-.22-1.29-.71a3.48,3.48,0,0,0-5.41,0C6.8,18.78,6.56,19,6,19s-.8-.22-1.29-.71A3.56,3.56,0,0,0,2,17v2c.56,0,.8.22,1.29.71A3.56,3.56,0,0,0,6,21,3.56,3.56,0,0,0,8.7,19.71c.49-.49.73-.71,1.29-.71s.8.22,1.29.71a3.48,3.48,0,0,0,5.42,0c.49-.49.73-.71,1.3-.71s.8.22,1.29.71A3.57,3.57,0,0,0,22,21V19c-.56,0-.8-.22-1.29-.71A3.57,3.57,0,0,0,18,17Z"/>
	<path d="M18,13a3.57,3.57,0,0,0-2.71,1.29c-.49.49-.73.71-1.29.71s-.8-.22-1.29-.71a3.48,3.48,0,0,0-5.41,0C6.8,14.78,6.56,15,6,15s-.8-.22-1.29-.71A3.56,3.56,0,0,0,2,13v2c.56,0,.8.22,1.29.71A3.56,3.56,0,0,0,6,17,3.56,3.56,0,0,0,8.7,15.71c.49-.49.73-.71,1.29-.71s.8.22,1.29.71a3.48,3.48,0,0,0,5.42,0c.49-.49.73-.71,1.3-.71s.8.22,1.29.71A3.57,3.57,0,0,0,22,17V15c-.56,0-.8-.22-1.29-.71A3.57,3.57,0,0,0,18,13Z"/>
	<path d="M12,10a3,3,0,1,0,3-3A3,3,0,0,0,12,10Zm4,0a1,1,0,1,1-1-1A1,1,0,0,1,16,10Z"/>
	<path d="M8,11v1h2V11a6,6,0,0,1,6-6V3A8,8,0,0,0,8,11Z"/>
</g>
</svg>