<?xml version="1.0" standalone="no"?>
<!DOCTYPE svg PUBLIC "-//W3C//DTD SVG 20010904//EN"
 "http://www.w3.org/TR/2001/REC-SVG-20010904/DTD/svg10.dtd">
<svg version="1.0" xmlns="http://www.w3.org/2000/svg" width="200.000000pt" height="200.000000pt" viewBox="0 0 200.000000 200.000000" preserveAspectRatio="xMidYMid meet">
<g transform="translate(0.000000,200.000000) scale(0.100000,-0.100000)" fill="#000000" stroke="none">
	<path d="M850 1883 c-223 -29 -409 -141 -508 -304 -55 -90 -65 -142 -66 -329
	-1 -198 -2 -201 -87 -303 -66 -79 -65 -93 15 -151 49 -37 66 -77 82 -204 24
	-182 43 -196 249 -186 118 6 137 5 160 -10 34 -22 60 -80 81 -182 10 -43 22
	-85 27 -92 7 -9 84 -12 323 -12 274 0 315 2 329 16 8 9 13 24 10 33 -14 47
	-55 239 -55 264 l0 27 -90 0 -90 0 0 80 0 80 -80 0 -80 0 0 80 0 80 -80 0 -80
	0 0 80 0 80 80 0 80 0 0 80 0 80 80 0 80 0 0 80 0 80 80 0 80 0 0 80 0 80 -80
	0 -80 0 0 80 0 80 -80 0 -80 0 0 80 0 80 80 0 81 0 -3 58 -3 57 -70 18 c-71
	17 -241 29 -305 20z m-90 -393 l0 -80 -80 0 -80 0 0 80 0 80 80 0 80 0 0 -80z
	m320 -60 l0 -80 -80 0 -80 0 0 80 0 80 80 0 80 0 0 -80z m-122 -217 l-3 -78
	-77 -3 -78 -3 0 81 0 80 80 0 81 0 -3 -77z m42 -723 l0 -80 -80 0 -80 0 0 80
	0 80 80 0 80 0 0 -80z"/>
	<path d="M1267 1734 c-4 -4 -7 -40 -7 -81 l0 -73 85 0 86 0 -3 78 -3 77 -75 3
	c-42 1 -79 0 -83 -4z"/>
	<path d="M1470 1540 l0 -81 78 3 77 3 3 78 3 77 -81 0 -80 0 0 -80z"/>
	<path d="M1700 1390 l0 -80 80 0 80 0 0 80 0 80 -80 0 -80 0 0 -80z"/>
	<path d="M1480 1200 l0 -80 80 0 81 0 -3 78 -3 77 -77 3 -78 3 0 -81z"/>
	<path d="M1282 1043 l3 -78 78 -3 77 -3 0 81 0 80 -80 0 -81 0 3 -77z"/>
	<path d="M1110 850 l0 -80 80 0 80 0 0 80 0 80 -80 0 -80 0 0 -80z"/>
	<path d="M1460 830 l0 -80 80 0 80 0 0 80 0 80 -80 0 -80 0 0 -80z"/>
	<path d="M1310 620 l0 -80 80 0 80 0 0 80 0 80 -80 0 -80 0 0 -80z"/>
	<path d="M1570 520 l0 -80 80 0 80 0 0 80 0 80 -80 0 -80 0 0 -80z"/>
</g>
</svg>

