<?xml version="1.0" encoding="utf-8"?>
<!-- Svg Vector Icons : http://www.onlinewebfonts.com/icon -->
<!DOCTYPE svg PUBLIC "-//W3C//DTD SVG 1.1//EN" "http://www.w3.org/Graphics/SVG/1.1/DTD/svg11.dtd">
<svg version="1.1" xmlns="http://www.w3.org/2000/svg" xmlns:xlink="http://www.w3.org/1999/xlink" x="0px" y="0px" viewBox="0 0 256 256" enable-background="new 0 0 256 256" xml:space="preserve">
<metadata> Svg Vector Icons : http://www.onlinewebfonts.com/icon </metadata>
<g><g><path fill="#000000" d="M187,98.2c-8.1,0-14.9,6.8-14.9,14.9c0,8.1,6.8,14.9,14.9,14.9c8.1,0,14.9-6.8,14.9-14.9C201.9,105,195.1,98.2,187,98.2L187,98.2L187,98.2z M128,201.9c-8.7,0-16.8-1.3-24.9-2.5l-34.8,21.1l0.6-34.1c-26.7-16.2-44.1-42.2-44.1-72.7c0-49.1,45.9-88.8,103.1-88.8c57.1,0,103.1,39.8,103.1,88.2C231.1,162.1,185.1,201.9,128,201.9L128,201.9L128,201.9z M128,10C62.8,10,10,55.9,10,113.1c0,32.3,17.4,61.5,44.1,80.7V246l51.6-31.7c7.4,1.3,14.3,1.9,22.3,1.9c65.2,0,118-45.9,118-103.1C246,55.9,193.2,10,128,10L128,10L128,10z M69,98.2c-8.1,0-14.9,6.8-14.9,14.9c0,8.1,6.8,14.9,14.9,14.9s14.9-6.8,14.9-14.9C83.9,105,77.1,98.2,69,98.2L69,98.2L69,98.2z M128,98.2c-8.1,0-14.9,6.8-14.9,14.9c0,8.1,6.8,14.9,14.9,14.9c8.1,0,14.9-6.8,14.9-14.9C142.9,105,136.1,98.2,128,98.2L128,98.2L128,98.2z"/></g></g>
</svg>